# xmcd
#
# Track frame offsets: 
#        150
#        19369
#        42769
#        74510
#        90414
#        111623
#        136314
#        156451
#        182927
#        210044
#        229181
#
# Disc length: 3495 seconds
#
# Revision: 0
# Processed by: cddbd v1.5.2PL0 Copyright (c) Steve Scherf et al.
# Submitted via: ExactAudioCopy v0.99pb3
#
DISCID=990da50b
DTITLE=Blues Company - Hot and Ready to Serve
DYEAR=2007
DGENRE=Blues
TTITLE0=Till the Lights Go Out
TTITLE1=My Guitar and Me
TTITLE2=Kids
TTITLE3=Hollywood
TTITLE4=Soon or Later
TTITLE5=Plastic People
TTITLE6=Shake It, Don't Break It
TTITLE7=Dark Day
TTITLE8=Doin' It Right
TTITLE9=The People
TTITLE10=Hideaway/Peter Gunn Theme
EXTD=
EXTT0=
EXTT1=
EXTT2=
EXTT3=
EXTT4=
EXTT5=
EXTT6=
EXTT7=
EXTT8=
EXTT9=
EXTT10=
PLAYORDER=
